<?xml version="1.0" encoding="UTF-8"?>
<svg width="113px" height="84px" viewBox="0 0 113 84" version="1.1" xmlns="http://www.w3.org/2000/svg" xmlns:xlink="http://www.w3.org/1999/xlink">
    <title>icon/logo-color-bg-dark</title>
    <defs>
        <polygon id="path-1" points="0.00131174658 0.277135325 20.3684994 0.277135325 20.3684994 24.9980769 0.00131174658 24.9980769"></polygon>
        <polygon id="path-3" points="0.228010192 0.513485714 64.3488353 0.513485714 64.3488353 65.943196 0.228010192 65.943196"></polygon>
        <polygon id="path-5" points="0.6896971 0.717096505 39.5685238 0.717096505 39.5685238 39.6643872 0.6896971 39.6643872"></polygon>
    </defs>
    <g id="icon/logo-color-bg-dark" stroke="none" stroke-width="1" fill="none" fill-rule="evenodd">
        <g id="Group-34">
            <g id="Group-3" transform="translate(0.000000, 59.000000)">
                <mask id="mask-2" fill="white">
                    <use xlink:href="#path-1"></use>
                </mask>
                <g id="Clip-2"></g>
                <path d="M11.8081091,22.2113462 C11.7489273,21.9998077 11.6897455,21.9517308 11.5828364,21.5959615 C11.4759273,21.2382692 11.1208364,19.7921154 11.1208364,19.7921154 L11.1800182,19.7478846 C11.2411091,19.9363462 11.4434727,20.2209615 11.4434727,20.2209615 C11.6057455,20.6286538 11.7489273,21.2844231 11.8424727,21.7325 C11.9360182,22.1863462 11.9971091,22.4248077 11.9971091,22.4248077 C11.8882909,22.2478846 11.8081091,22.2113462 11.8081091,22.2113462 M20.3589273,2.82288462 C20.3188364,2.66519231 20.2348364,2.57865385 20.0859273,2.45942308 C19.9389273,2.34403846 19.8453818,2.34596154 19.8453818,2.34596154 L19.8072,2.3075 C19.8568364,2.24788462 19.7938364,2.23442308 19.8339273,2.1325 C19.8721091,2.02865385 19.8339273,2.01134615 19.8339273,2.01134615 C19.8339273,2.01134615 19.7289273,2.00942308 19.7461091,1.9075 C19.7594727,1.81134615 19.8052909,1.77096154 19.7862,1.70365385 C19.7632909,1.64019231 19.7002909,1.71134615 19.6697455,1.62096154 C19.6277455,1.48442308 19.5819273,1.51134615 19.5819273,1.51134615 L19.5112909,1.48826923 C19.4253818,1.39211538 19.3012909,1.39403846 19.3012909,1.39403846 L19.1791091,1.30365385 C19.0989273,1.06326923 19.0836545,0.790192308 19.0340182,0.795961538 C18.9843818,0.799807692 19.0187455,0.905576923 18.9843818,1.00557692 C18.9481091,1.09980769 18.9118364,1.05365385 18.9118364,1.05365385 C18.7400182,0.644038462 18.5853818,0.686346154 18.5414727,0.617115385 C18.4975636,0.547884615 18.4689273,0.584423077 18.3715636,0.497884615 C18.2722909,0.413269231 18.2054727,0.5075 18.3276545,0.586346154 C18.4517455,0.669038462 18.4689273,0.840192308 18.5013818,0.901730769 C18.5319273,0.965192308 18.4784727,1.00557692 18.4212,0.963269231 C18.3620182,0.919038462 18.3944727,0.826730769 18.3028364,0.690192308 C18.2112,0.547884615 17.9000182,0.242115385 17.8809273,0.334423077 C17.8580182,0.428653846 17.9725636,0.467115385 18.0718364,0.738269231 C18.1711091,1.01326923 18.0775636,0.995961538 18.0470182,0.999807692 C18.0164727,1.00365385 17.9668364,0.970961538 17.8503818,0.805576923 C17.7358364,0.638269231 17.6461091,0.617115385 17.6461091,0.617115385 C17.5926545,0.517115385 17.5143818,0.472884615 17.4112909,0.405576923 C17.3101091,0.342115385 17.2872,0.238269231 17.2413818,0.292115385 C17.1917455,0.338269231 17.2318364,0.442115385 17.3731091,0.584423077 C17.5143818,0.728653846 17.4857455,0.719038462 17.5468364,0.8575 C17.6079273,0.995961538 17.5907455,1.02288462 17.4991091,1.03057692 C17.4093818,1.03634615 17.2203818,0.799807692 17.1344727,0.705576923 C17.0504727,0.617115385 16.9473818,0.538269231 16.8595636,0.461346154 C16.7698364,0.388269231 16.7507455,0.472884615 16.8003818,0.572884615 C16.8462,0.665192308 16.9912909,0.876730769 17.0867455,1.00557692 C17.1822,1.13442308 17.0772,1.17673077 16.9951091,1.17096154 C16.9206545,1.16711538 16.8366545,1.09980769 16.8366545,1.09980769 C16.6438364,0.990192308 16.6094727,0.9825 16.5292909,0.936346154 C16.4472,0.886346154 16.3288364,0.765192308 16.3021091,0.788269231 C16.2753818,0.813269231 16.2276545,0.851730769 16.3345636,1.02480769 C16.4433818,1.20365385 16.3288364,1.19596154 16.3288364,1.19596154 C16.1493818,1.1325 15.9813818,1.22673077 16.0195636,1.36903846 C16.0577455,1.51134615 16.1608364,1.61711538 16.1608364,1.61711538 C16.1608364,1.61711538 16.1512909,1.62673077 16.1322,1.70173077 C16.1131091,1.77865385 16.2047455,1.84019231 16.2047455,1.84019231 C16.2066545,1.92096154 16.2562909,2.07096154 16.3880182,2.07480769 C16.6266545,2.07673077 16.4223818,2.12288462 16.6113818,2.18057692 C16.8003818,2.24019231 17.0982,2.24211538 17.0982,2.24211538 C17.1172909,2.28826923 17.0657455,2.32673077 17.0657455,2.32673077 C17.0657455,2.32673077 16.4013818,2.57096154 15.4831091,3.64403846 C15.4506545,3.68057692 15.3972,3.83634615 15.3628364,3.88057692 C15.2215636,4.05942308 15.1070182,4.21519231 14.9695636,4.42480769 C14.9122909,4.51903846 14.8092,4.63442308 14.7557455,4.72480769 C14.5858364,5.02096154 14.4216545,5.24596154 14.2803818,5.52865385 C14.2441091,5.6075 14.1906545,5.76134615 14.1467455,5.82673077 C13.8012,6.36903846 13.6102909,6.5825 13.6102909,6.5825 C13.6102909,6.5825 13.3812,6.90557692 12.3732,7.3325 C12.1536545,7.42673077 12.0181091,7.47096154 11.7355636,7.53634615 C11.3938364,7.61326923 11.0902909,7.69403846 10.7810182,7.79403846 C10.4488364,7.90173077 10.1643818,7.97480769 9.6642,8.1825 C9.33583636,8.32673077 8.86429091,8.60557692 8.41183636,8.81134615 C8.41183636,8.81134615 8.39847273,8.7325 8.33356364,8.60557692 C8.31638182,8.57865385 8.29156364,8.52096154 8.2782,8.49211538 C8.25910909,8.46134615 8.23810909,8.44788462 8.21710909,8.41519231 C8.19801818,8.38634615 8.19038182,8.35173077 8.16556364,8.31903846 C8.13883636,8.27865385 8.09301818,8.24019231 8.05674545,8.19788462 C7.93456364,8.0575 7.83147273,7.92673077 7.59665455,7.88442308 C7.55274545,7.87288462 7.52029091,7.85365385 7.48592727,7.84019231 C7.46683636,7.83826923 7.42674545,7.81711538 7.40765455,7.81134615 C7.34274545,7.78057692 7.27592727,7.71134615 7.22247273,7.67865385 C6.91510909,7.49980769 6.77001818,7.31326923 6.77001818,7.31326923 C6.77001818,7.31326923 6.55047273,6.31903846 5.73529091,5.64980769 C5.69329091,5.61711538 5.60738182,5.6325 5.56729091,5.60365385 C5.50047273,5.54980769 5.46038182,5.44403846 5.40501818,5.41134615 L5.29810909,5.42480769 L5.28665455,5.39019231 L5.17783636,5.2325 L5.12247273,5.29788462 C4.88383636,5.18442308 4.61083636,5.04211538 4.30729091,5.0075 L3.88347273,5.04788462 C3.71547273,5.05557692 3.55701818,5.07288462 3.40429091,5.10365385 C3.28974545,5.12480769 3.17710909,5.16326923 3.06638182,5.20173077 C2.71129091,5.31711538 2.40010909,5.46903846 2.13665455,5.66711538 C1.81401818,5.90942308 1.56583636,6.2075 1.38638182,6.45173077 C0.699109091,7.25557692 0.464290909,8.42865385 0.464290909,8.42865385 C0.317290909,8.67480769 0.267654545,9.06711538 0.267654545,9.06711538 C-0.00916363636,9.75173077 -0.0778909091,10.5805769 0.0977454545,11.2555769 C0.2772,11.9267308 0.743018182,12.2575 0.743018182,12.2575 L0.744927273,12.1767308 C0.659018182,11.9959615 0.4662,11.5805769 0.4662,11.5805769 C0.426109091,11.4017308 0.389836364,11.1767308 0.372654545,10.7748077 C0.351654545,10.3728846 0.4662,9.97480769 0.494836364,9.84211538 C0.525381818,9.71711538 0.580745455,9.65942308 0.580745455,9.65942308 C0.639927273,9.77865385 0.794563636,10.0036538 0.794563636,10.0036538 C0.754472727,9.83057692 0.651381818,9.44403846 0.651381818,9.44403846 C0.983563636,8.74019231 1.19356364,8.59403846 1.19356364,8.59403846 L1.19356364,8.56134615 C1.15729091,8.53826923 1.13247273,8.51519231 1.13247273,8.51519231 C1.21074545,8.53442308 1.24892727,8.52480769 1.24892727,8.52480769 C1.38065455,8.36519231 1.50092727,8.24788462 1.50092727,8.24788462 C1.54483636,8.33442308 1.58492727,8.3575 1.58492727,8.3575 L1.61356364,8.27865385 L1.65365455,8.29211538 L1.68229091,8.22673077 C1.71856364,8.21519231 1.76056364,8.24019231 1.76056364,8.24019231 L1.82356364,8.21903846 C1.6842,8.28634615 1.65365455,8.39403846 1.65365455,8.39403846 L1.69183636,8.4825 L1.84074545,8.60557692 L1.86174545,8.63634615 C1.68038182,8.90365385 1.60210909,9.16134615 1.60210909,9.16134615 C1.59638182,9.23826923 1.56392727,9.3575 1.56392727,9.3575 C1.48947273,9.52096154 1.48183636,9.78826923 1.50474545,9.91711538 C1.52765455,10.0517308 1.61929091,10.1478846 1.61929091,10.1478846 C1.61929091,10.1478846 1.6842,9.89211538 1.72238182,9.77096154 C1.76438182,9.64980769 1.79683636,9.61903846 1.85029091,9.47865385 C1.89801818,9.34019231 1.97438182,9.28057692 1.97438182,9.28057692 L1.99347273,9.26326923 C1.98965455,9.33057692 1.94001818,9.6075 2.0202,9.75173077 C2.10038182,9.89980769 2.13665455,10.0075 2.16147273,9.99980769 C2.19010909,9.98634615 2.24356364,9.8575 2.24356364,9.8575 C2.24356364,9.8575 2.26265455,9.89403846 2.28174545,9.93442308 C2.30083636,9.97865385 2.27601818,10.0209615 2.27601818,10.0209615 C2.07938182,10.1325 2.07556364,10.1728846 2.07556364,10.1728846 L2.14047273,10.1709615 C2.31801818,10.1632692 2.15765455,10.2267308 2.15765455,10.2267308 C2.04501818,10.2594231 2.05265455,10.3055769 2.05265455,10.3055769 L2.12901818,10.3094231 L2.12138182,10.3459615 L2.17865455,10.3536538 L2.1882,10.3748077 L2.07938182,10.4440385 C2.1042,10.6786538 2.23210909,10.6709615 2.43447273,10.6113462 C2.63874545,10.5536538 2.82583636,10.4921154 2.82583636,10.4921154 L2.81629091,10.5267308 C2.81629091,10.5267308 3.28210909,10.4132692 3.41956364,10.3825 C3.55701818,10.3478846 3.6582,10.4594231 3.6582,10.4594231 C3.61047273,10.4998077 3.62001818,10.5709615 3.62001818,10.5709615 C3.5322,10.5959615 3.52456364,10.7055769 3.52456364,10.7055769 C3.52456364,10.7055769 3.48065455,10.7286538 3.51310909,10.8613462 C3.54556364,10.9921154 3.69256364,11.1805769 3.69256364,11.1805769 C3.81474545,11.1901923 3.85483636,11.2728846 3.81665455,11.3959615 C3.77847273,11.5190385 3.84910909,11.6517308 4.06865455,11.6786538 C4.29010909,11.7113462 4.29010909,11.8036538 4.29010909,11.8036538 C4.3722,11.9363462 4.3092,12.0613462 4.3092,12.0613462 C4.18892727,12.2075 4.44092727,12.3517308 4.44092727,12.3517308 C4.56501818,12.4844231 4.48292727,12.6286538 4.48292727,12.6286538 L4.44856364,12.5805769 L4.44474545,12.6478846 L4.39701818,12.5709615 L4.39129091,12.6401923 L4.3092,12.6036538 C4.38365455,12.7267308 4.46574545,12.7825 4.46574545,12.7825 L4.46574545,12.8459615 L4.48865455,12.8767308 L4.48292727,12.9305769 C4.51538182,12.9844231 4.47529091,13.0151923 4.47529091,13.0151923 C4.58410909,13.0844231 4.50392727,13.2055769 4.50392727,13.2055769 C4.6662,13.3094231 4.75401818,13.4209615 4.75401818,13.4209615 L4.72538182,13.4805769 L4.86283636,13.4940385 L4.96401818,13.5632692 L5.03274545,13.5132692 L5.08810909,13.5690385 L5.11292727,13.6344231 L5.13965455,13.6613462 L5.14347273,13.7190385 C5.18547273,13.7632692 5.15301818,13.8036538 5.15301818,13.8036538 C5.27710909,13.8459615 5.21983636,13.9844231 5.21983636,13.9844231 C5.24847273,14.0363462 5.27901818,14.1728846 5.27901818,14.1728846 L5.44129091,14.2786538 L5.5482,14.3286538 L5.59974545,14.3363462 L5.56347273,14.4978846 L5.62265455,14.4382692 L5.74483636,14.5882692 C5.86701818,14.8267308 6.0732,15.0517308 6.18392727,15.1190385 C6.29465455,15.1921154 6.21638182,15.2651923 6.21638182,15.2651923 C6.37674545,15.3613462 6.46456364,15.4767308 6.46456364,15.4767308 L6.43592727,15.5363462 L6.57529091,15.5459615 L6.67647273,15.6171154 L6.74710909,15.5671154 L6.81583636,15.6575 L6.88647273,15.6498077 L6.86929091,15.7094231 L7.0182,15.8728846 L7.10983636,15.8805769 L7.06974545,15.9517308 L7.17665455,15.9844231 L7.15947273,16.0536538 L7.29883636,16.0132692 L7.34847273,16.0825 L7.47065455,16.1748077 L7.58138182,16.2248077 L7.63101818,16.2363462 L7.7322,16.3555769 L7.79138182,16.2959615 L7.91165455,16.4498077 L7.98038182,16.5171154 L7.91165455,16.5690385 C7.95174545,16.5978846 8.19229091,16.7305769 8.19229091,16.7305769 L8.22092727,16.8305769 L8.28392727,16.8805769 L8.28392727,17.0151923 C8.28392727,17.0151923 8.31447273,17.0151923 8.43283636,16.9921154 C8.55310909,16.9709615 8.65429091,17.0651923 8.65429091,17.0651923 C8.5932,17.5209615 8.70392727,17.4709615 8.70392727,17.4709615 L8.81656364,17.4267308 C8.97501818,17.4267308 9.01892727,17.3267308 9.01892727,17.3267308 C9.0342,17.4094231 9.19456364,17.4478846 9.20792727,17.5132692 C9.21747273,17.5690385 9.10865455,17.6401923 9.10865455,17.6401923 L9.20792727,17.6844231 L9.25947273,17.6517308 L9.25947273,17.7113462 L9.35874545,17.6709615 C9.41029091,17.9344231 9.47901818,17.8728846 9.47901818,17.8728846 C9.47901818,17.8728846 9.59738182,17.8228846 9.62983636,17.7728846 C9.66038182,17.7209615 9.76156364,17.8844231 9.76156364,17.8844231 L9.78065455,17.9959615 C9.68901818,18.2382692 9.71956364,18.5940385 9.71956364,18.5940385 C9.85892727,18.9728846 10.0250182,19.1267308 10.0250182,19.1267308 C10.0250182,19.1267308 10.0861091,19.6940385 10.1968364,19.8671154 C10.3037455,20.0363462 10.6912909,21.2401923 10.7562,21.4459615 C10.8230182,21.6498077 10.9032,21.9132692 10.9032,21.9132692 C10.9032,21.9132692 10.8631091,21.9940385 10.8936545,21.9959615 C10.9280182,21.9959615 10.9184727,22.0498077 10.9184727,22.0498077 C10.8745636,22.1267308 10.9184727,22.1094231 10.9203818,22.1536538 C10.9222909,22.1940385 10.9299273,22.4132692 10.8459273,22.4228846 C10.7657455,22.4325 10.7600182,22.5382692 10.7600182,22.5382692 C10.6321091,22.6036538 10.6626545,22.6286538 10.6550182,22.6536538 C10.6454727,22.6748077 10.5748364,22.7267308 10.5748364,22.7267308 L10.5729273,22.7594231 C10.5729273,22.7594231 10.5175636,22.8113462 10.4889273,22.8478846 C10.4564727,22.8844231 10.3400182,22.9805769 10.3400182,22.9805769 L10.2789273,23.0190385 L10.2140182,23.0709615 L10.1643818,23.1017308 L10.1166545,23.1228846 L10.0632,23.1382692 L10.0269273,23.1709615 L10.0021091,23.1844231 C9.82265455,23.2132692 9.72910909,23.3267308 9.66992727,23.4632692 C9.61074545,23.6055769 9.66992727,23.7478846 9.74438182,23.6151923 C9.81501818,23.4901923 9.92765455,23.4901923 9.92765455,23.4901923 C9.92765455,23.4901923 9.9162,23.6171154 10.1032909,23.6344231 C10.2884727,23.6459615 10.3762909,23.5748077 10.4049273,23.5498077 C10.4354727,23.5305769 10.4717455,23.4459615 10.4717455,23.4459615 C10.4889273,23.4151923 10.5576545,23.4017308 10.5576545,23.4017308 C10.6359273,23.3325 10.6702909,23.2863462 10.7428364,23.2305769 C10.8134727,23.1748077 10.8287455,23.1882692 10.8287455,23.1882692 C10.8287455,23.1882692 10.8459273,23.2940385 10.8115636,23.3805769 C10.7733818,23.4632692 10.6149273,23.6036538 10.6149273,23.6036538 C10.4526545,23.6594231 10.3304727,23.7286538 10.2999273,23.7478846 C10.2693818,23.7632692 10.1739273,23.8671154 10.1739273,23.8671154 L10.1720182,23.8998077 C10.0593818,23.9690385 9.85892727,24.1671154 9.83410909,24.3209615 C9.80929091,24.4767308 9.93338182,24.3651923 10.0002,24.2959615 C10.0689273,24.2209615 10.1281091,24.1748077 10.1281091,24.1748077 L10.1720182,24.1748077 C10.2063818,24.2478846 10.4278364,24.2805769 10.5309273,24.1748077 C10.6359273,24.0632692 10.7161091,24.0671154 10.7791091,24.0594231 C10.8440182,24.0498077 10.9280182,24.0632692 11.0444727,23.8728846 C11.1647455,23.6882692 11.3041091,23.6632692 11.4072,23.6498077 C11.5064727,23.6344231 11.6248364,23.7151923 11.6248364,23.7151923 L11.5962,23.7363462 C11.4033818,23.7748077 11.2850182,23.9536538 11.2525636,24.0940385 C11.2201091,24.2228846 11.2907455,24.2651923 11.3289273,24.1825 C11.3652,24.0959615 11.4816545,24.0382692 11.5045636,24.0363462 C11.5274727,24.0305769 11.5332,24.0651923 11.5332,24.0651923 C11.5599273,24.1825 11.7145636,24.2113462 11.8462909,24.1786538 C11.9818364,24.1440385 12.0162,24.0671154 12.0391091,24.0286538 C12.0601091,23.9901923 12.0849273,23.9825 12.0849273,23.9825 C12.0849273,23.9825 12.0830182,24.0901923 12.0734727,24.1325 C12.0639273,24.1748077 11.9512909,24.2825 11.9512909,24.2825 C11.8443818,24.3325 11.8386545,24.3651923 11.8386545,24.3651923 C11.6267455,24.3921154 11.6114727,24.4325 11.5904727,24.4459615 C11.5694727,24.4613462 11.5351091,24.4921154 11.5351091,24.4921154 C11.3709273,24.5401923 11.2430182,24.6901923 11.1819273,24.7690385 C11.1227455,24.8478846 11.0406545,25.0459615 11.1189273,24.9901923 C11.2239273,24.9132692 11.3804727,24.8055769 11.3804727,24.8055769 C11.4453818,24.7594231 11.4167455,24.8459615 11.4912,24.8748077 C11.6057455,24.9171154 11.8042909,24.8555769 11.8042909,24.8555769 C11.8424727,24.7921154 11.8921091,24.7844231 11.8921091,24.7844231 C12.1212,24.7844231 12.2013818,24.6748077 12.2013818,24.6748077 L12.3350182,24.6748077 L12.4476545,24.5998077 C12.6672,24.5440385 12.6042,24.4594231 12.6042,24.4594231 C12.6767455,24.4536538 13.2532909,24.4517308 13.3372909,24.4632692 C13.4212909,24.4767308 13.6503818,24.5440385 13.6503818,24.5440385 L14.0073818,24.5575 C14.0073818,24.5575 14.3376545,24.6228846 14.4216545,24.5805769 C14.5877455,24.5036538 14.6984727,24.5440385 14.7977455,24.5901923 C14.8989273,24.6440385 15.1833818,24.6401923 15.2139273,24.5748077 C15.2444727,24.5055769 15.2979273,24.4690385 15.2979273,24.4690385 C15.4430182,24.4921154 15.5327455,24.6478846 15.6663818,24.6344231 C15.8019273,24.6228846 15.6530182,24.4690385 15.4773818,24.3248077 C15.3017455,24.1825 15.0650182,24.1613462 15.0650182,24.1613462 L15.0592909,24.1440385 C15.1375636,24.1190385 15.0822,24.1748077 15.3093818,24.1440385 C15.5384727,24.1132692 15.4907455,24.0228846 15.4907455,24.0228846 C15.5709273,23.9498077 15.7102909,23.9594231 15.8821091,24.0075 C16.0558364,24.0632692 16.0272,23.9805769 15.8382,23.8190385 C15.6511091,23.6613462 15.3475636,23.7478846 15.3475636,23.7478846 L15.2979273,23.7113462 L15.1662,23.7113462 L15.0917455,23.6805769 C14.9390182,23.7017308 14.5476545,23.8151923 14.3452909,23.7382692 C14.1448364,23.6651923 14.0341091,23.7113462 14.0341091,23.7113462 L13.8890182,23.6248077 C13.9692,23.6363462 14.0131091,23.5498077 14.0131091,23.5498077 C14.1639273,23.6325 14.2975636,23.5421154 14.2975636,23.5421154 C14.2975636,23.5421154 14.2975636,23.5844231 14.4903818,23.5825 C14.6889273,23.5748077 14.7175636,23.3959615 14.7175636,23.3959615 C14.7767455,23.3555769 14.9180182,23.3805769 14.9180182,23.3805769 C15.1948364,23.5151923 15.0917455,23.3555769 15.0917455,23.3555769 C14.8989273,23.0536538 14.5648364,23.1709615 14.5648364,23.1709615 C14.4197455,23.0882692 14.4025636,23.1478846 14.4025636,23.1478846 C14.1524727,23.1286538 14.0131091,23.1844231 14.0131091,23.1844231 C13.8527455,23.1844231 13.6885636,23.1709615 13.5148364,23.1921154 C13.3563818,23.2132692 13.0566545,23.1555769 13.0566545,23.1555769 C12.9134727,22.8998077 12.7664727,22.0748077 12.7034727,21.9075 C12.6366545,21.7382692 12.4266545,20.6940385 12.4266545,20.6940385 L12.3235636,20.0363462 C12.3922909,19.9555769 12.3922909,19.9132692 12.4037455,19.6632692 C12.4190182,19.4190385 12.5545636,19.3863462 12.6194727,19.0498077 C12.6843818,18.7171154 13.1387455,18.2690385 13.2666545,18.1036538 C13.3888364,17.9344231 13.5854727,17.5575 13.5854727,17.5575 C13.6656545,17.6690385 13.7152909,17.6190385 13.7802,17.5459615 C13.8412909,17.4728846 13.8336545,17.3190385 13.8584727,17.2671154 C13.8832909,17.2132692 13.9004727,17.1132692 13.9004727,17.1132692 L13.9062,16.9286538 C13.9462909,16.7690385 14.0322,16.5882692 14.0322,16.5882692 L14.0684727,16.4825 L14.0837455,16.4248077 C14.0837455,16.4248077 14.0627455,16.4151923 14.2059273,16.1844231 C14.3529273,15.9536538 14.7232909,15.6940385 14.7232909,15.6940385 L14.5953818,15.8478846 C14.6717455,15.7998077 14.9008364,15.7132692 14.9008364,15.7132692 L14.9733818,15.6536538 L14.9390182,15.7536538 C15.2368364,15.4132692 15.2979273,15.5305769 15.2979273,15.5305769 L15.3074727,15.4055769 C15.3361091,15.3459615 15.3838364,15.4594231 15.3838364,15.4594231 C15.5022,15.3421154 15.5976545,15.2363462 15.5976545,15.2363462 L15.6072,15.3651923 L15.6606545,15.3767308 C15.6759273,15.2805769 15.7408364,15.2248077 15.7408364,15.2248077 C15.7713818,15.3055769 15.7293818,15.4190385 15.7293818,15.4190385 L15.7771091,15.3344231 L15.7866545,15.3594231 C15.8382,15.3151923 15.8668364,15.1959615 15.8668364,15.1959615 L15.9241091,15.1998077 C15.9241091,15.1998077 16.0443818,15.0401923 16.0291091,14.9286538 C16.0195636,14.8113462 16.0863818,14.6882692 16.0863818,14.6882692 C16.0997455,14.7863462 16.1703818,14.8190385 16.1703818,14.8190385 L16.1703818,14.6248077 L16.2200182,14.6536538 C16.2104727,14.4555769 16.2448364,14.2401923 16.2448364,14.2401923 C16.5025636,13.9940385 17.2318364,13.4036538 17.2318364,13.4036538 C17.4246545,13.2555769 17.5831091,13.0267308 17.8542,12.7940385 C18.1291091,12.5594231 18.3391091,12.3998077 18.3391091,12.3998077 L18.3276545,12.3363462 L18.3887455,12.3132692 C18.6178364,11.9921154 18.8316545,11.5978846 18.9252,11.2805769 C19.0187455,10.9613462 19.1848364,10.4132692 19.1848364,10.4132692 L19.1638364,10.3459615 C19.2822,10.3286538 19.1848364,10.1728846 19.2554727,10.1171154 C19.3318364,10.0651923 19.3203818,9.87288462 19.3203818,9.87288462 C19.4177455,9.68442308 19.4024727,9.53057692 19.4024727,9.53057692 C19.4444727,9.46903846 19.4654727,9.30173077 19.4635636,9.20173077 C19.4578364,9.1075 19.5074727,8.9325 19.6029273,8.41519231 C19.7136545,7.82288462 19.4139273,7.18826923 19.3203818,6.66519231 C19.1294727,6.1825 18.8889273,5.82480769 18.7362,5.56519231 C18.6483818,5.41903846 18.7400182,5.38057692 18.7400182,5.38057692 L19.0702909,5.30557692 L19.5819273,5.14211538 C19.5819273,5.14211538 19.7041091,5.0575 19.7518364,4.9825 C19.7976545,4.91134615 19.8377455,4.89211538 19.8377455,4.89211538 C20.0076545,4.86134615 19.9847455,4.72096154 19.9847455,4.72096154 C20.1680182,4.52865385 20.1050182,4.16711538 20.1050182,4.16711538 C20.1050182,4.16711538 20.1794727,4.04403846 20.0630182,3.65942308 C19.9408364,3.27096154 19.7842909,3.24788462 19.7842909,3.24788462 C19.7842909,3.24788462 19.7900182,3.23634615 19.7499273,3.15942308 C19.7098364,3.08634615 19.6468364,3.09019231 19.6468364,3.09019231 C19.6697455,3.03057692 19.7098364,3.01711538 19.7556545,2.97096154 C19.7957455,2.92673077 19.8358364,2.94019231 19.8358364,2.94019231 C19.9236545,2.94596154 19.9580182,2.95365385 20.0553818,2.95173077 C20.1508364,2.94596154 20.2023818,2.93826923 20.2501091,2.90942308 C20.3035636,2.88442308 20.3990182,2.97865385 20.3589273,2.82288462" id="Fill-1" fill="#FFFFFF" mask="url(#mask-2)"></path>
            </g>
            <g id="Group-6" transform="translate(14.000000, 0.000000)">
                <mask id="mask-4" fill="white">
                    <use xlink:href="#path-3"></use>
                </mask>
                <g id="Clip-5"></g>
                <path d="M59.8763647,48.9491086 C59.1911294,49.0171086 57.3237176,47.0742514 57.0306,44.3853371 C56.8384235,42.5532229 57.7274824,22.9420229 57.5916,21.71608 C57.4576588,20.4901371 58.9543059,17.0590514 60.4781294,16.3343657 C62.0854235,15.5727657 62.5610118,15.3765371 64.3488353,15.28328 C64.0285412,14.4284229 63.6849529,13.6357371 63.3297176,12.9479657 C63.3316588,12.9499086 63.3316588,12.9518514 63.3316588,12.9518514 C63.3316588,12.9518514 59.5677176,13.2141371 57.8691882,12.2582514 C56.1706588,11.3004229 56.9199529,10.8963086 57.6013059,10.4183657 C58.2826588,9.94625143 59.6919529,10.2862514 61.7030118,10.70008 C61.7030118,10.70008 61.7767765,10.7739086 61.8874235,10.8788229 C55.9124824,4.38190857 43.4113059,0.760422857 33.3501882,0.523394286 C26.7948353,0.369908571 20.4200118,1.73962286 18.5953059,2.29139429 C16.7725412,2.84316571 8.72248235,4.59368 4.10830588,11.3043086 C0.689894118,16.2799657 -0.938752941,22.5495657 1.16936471,30.0587086 C3.27748235,37.5678514 7.69171765,43.0836229 10.2191294,46.6001943 C12.7504235,50.1167657 16.5920118,52.9921943 13.9054235,56.1143657 C11.2246588,59.2404229 8.82730588,61.5407657 8.82730588,61.5407657 L18.1216588,57.55208 C18.1216588,57.55208 22.6057765,61.7369943 25.2923647,63.2077371 C27.9789529,64.67848 31.9641882,65.9996229 35.2506,65.9413371 C38.9174824,65.8791657 48.2467765,63.0892229 55.7106,54.75048 C57.6420706,52.58808 59.2707176,50.5539086 60.6547765,48.5275086 C60.3014824,49.0365371 60.3228353,48.9005371 59.8763647,48.9491086" id="Fill-4" fill="#FDC300" mask="url(#mask-4)"></path>
            </g>
            <g id="Group-9" transform="translate(73.000000, 11.000000)">
                <mask id="mask-6" fill="white">
                    <use xlink:href="#path-5"></use>
                </mask>
                <g id="Clip-8"></g>
                <path d="M38.6266952,6.84017619 C38.204981,5.85422381 37.3127429,3.27708095 34.1928381,1.60584286 C31.0787905,-0.0693 26.1724571,0.658938095 23.4625524,3.49184286 C20.7565524,6.32279524 16.9064571,12.9804143 16.0200762,14.5403667 C15.1317429,16.100319 14.5304095,16.7289857 14.5304095,16.7289857 L8.47412381,16.766081 C8.47412381,16.766081 7.85326667,13.0936524 6.8146,9.0639381 C6.21521905,8.84917619 2.7966,7.76755714 2.46469524,10.8425571 C2.11326667,14.0561762 1.56269524,14.7199857 3.68102857,15.5458429 C5.79740952,16.3677952 7.84740952,17.6758905 6.34017143,19.1733667 C4.83098095,20.6767 3.11874286,20.6552238 2.36317143,20.9285571 C1.61345714,21.1999381 0.514266667,21.9496524 0.713409524,25.3682714 C0.9106,28.7927476 1.53340952,28.8298429 2.55450476,29.5151286 C3.35498095,30.050081 4.74507619,30.4112714 4.46393333,31.8482238 C6.49245714,27.6232714 7.69902857,23.0527476 8.53074286,17.1975571 C8.53074286,17.1975571 13.5620286,19.3158905 14.6065524,20.1144143 C15.6510762,20.9090333 16.761981,20.0617 17.0938857,25.7001762 C17.4316476,31.3367 17.4511714,36.7779857 19.4347905,38.2696048 C21.4184095,39.7631762 25.5555048,41.1064143 29.4466,36.4031286 C33.3455048,31.6920333 34.1245048,29.5190333 35.3955048,27.2327952 C36.6255048,25.0246524 38.3787429,20.1105095 38.605219,19.4642714 C39.7102667,16.3072714 40.049981,10.2099857 38.6266952,6.84017619" id="Fill-7" fill="#FDC300" mask="url(#mask-6)"></path>
            </g>
            <path d="M31.8129861,20.1030629 C31.5650454,17.8390282 28.5385948,15.0259023 27.5724133,14.6353515 C20.6536876,11.8454266 15.4607077,19.122819 15.3013173,19.5346374 C14.8900506,20.5864178 14.9175996,21.2747153 15.2757361,22.9664577 C15.9880736,26.2977402 20.9370483,39.3347904 24.652223,45.7402105 C28.4047856,52.2055665 27.2437935,43.2963677 26.1634805,37.7861211 C25.4531108,34.1590254 24.8568725,30.077576 24.8568725,30.077576 C24.8568725,30.077576 26.7616866,29.1050658 29.6346501,27.0865755 C32.5095813,25.0700185 32.0668301,22.369031 31.8129861,20.1030629" id="Fill-10" fill="#FFFFFF"></path>
            <path d="M37.1585209,15.2850853 C36.594494,15.9794377 34.5426029,17.1848023 33.5565282,25.4585186 C32.5782332,33.7107801 32.3273384,34.0208982 32.1036726,39.2499961 C31.8780618,44.5980701 31.9169602,49.5092482 33.2997987,49.9402928 C34.6904168,50.3732878 34.9043581,48.3682477 35.0618966,46.6089615 C35.2194352,44.843824 35.5267326,43.8627587 36.4525148,39.1719789 C37.376352,34.4851001 38.1484854,31.5243501 39.5468832,31.255191 C42.2658821,30.7168729 42.0033178,35.5909928 42.4175859,37.6994057 C42.7987903,39.6381313 43.6681697,45.0018087 44.4733668,46.9151787 C47.0834501,53.1058377 47.8944819,47.5100593 47.9936728,45.1149335 C48.0967536,42.7295599 46.9259115,31.8695759 45.5333484,23.4183707 C44.1368956,14.9671655 39.7783288,12.0551763 37.1585209,15.2850853" id="Fill-12" fill="#FFFFFF"></path>
            <path d="M62.515829,9.71979957 C63.3614202,8.8694103 63.4368485,7.55977192 59.9115668,6.89230391 C55.3302885,6.03218479 48.9585799,5.63520674 42.8766749,6.42916285 C40.6158101,6.72300445 38.6050498,7.5208525 38.1921789,8.50162181 C37.6542559,9.79180049 38.2298931,11.1520341 40.1175862,11.3407933 C42.4499094,11.5801477 43.0712006,11.6852301 44.403106,12.0452347 C46.8049027,12.6893511 47.8946435,14.4893741 48.5913631,18.7121309 C49.4270295,23.7638713 50.1376437,40.4564093 50.3004101,44.2549444 C50.397673,46.4519455 50.7311456,50.1006408 50.9951447,51.2818452 C51.7196536,54.5121568 52.9880405,54.697024 53.7006396,52.7121337 C54.407284,50.7350273 54.2484875,41.0830119 54.089691,35.9709464 C53.9308945,30.8549891 54.1571795,22.4192054 54.0400671,18.2762334 C53.9428043,14.7306745 54.812215,12.4869701 56.8051107,11.3116037 C58.7702171,10.1518051 61.4082235,10.825111 62.515829,9.71979957" id="Fill-14" fill="#FFFFFF"></path>
            <path d="M68.5263611,13.1968643 C66.5546174,12.5700679 65.8708206,14.1597975 65.4570459,16.1014821 C65.0452137,18.0392122 64.4857436,24.1311983 64.6838892,26.9013614 C64.8820349,29.6735018 64.8762071,32.4456422 62.9005783,32.3032784 C60.9307772,32.1609145 61.2066271,31.0674811 61.2843313,26.2192014 C61.3562076,21.53899 63.1647725,11.9116351 60.3635367,12.0006125 C59.4446847,12.0322489 58.6307334,12.8350228 58.2402699,13.8236606 C57.9683053,14.5157071 57.1524114,16.9121651 57.4807115,22.521696 C57.8070691,28.1371587 57.4515725,35.6171923 57.443802,38.3853781 C57.4379742,41.1555412 57.0785924,49.3276213 57.006716,51.6865111 C56.9348396,54.039469 57.4166056,59.0123172 59.5845523,54.3914241 C60.4956338,52.453694 60.5539119,49.2702803 61.0356779,45.5965022 C61.5193864,41.928656 61.3853467,40.6829724 61.9351038,38.8124696 C62.4848609,36.9439442 63.9806664,34.9666686 64.4527193,37.9167638 C64.7246839,39.5816298 63.7028739,45.9800937 63.7378408,47.8960737 C63.8000042,51.3483969 64.0408871,55.3998346 64.7169135,56.1788812 C66.6459199,58.4151799 67.2733811,55.5164939 67.549231,54.2016056 C67.8250808,52.8867174 68.246626,46.3083214 68.320445,44.2302048 C68.394264,42.1520881 69.7346611,19.9611241 69.8764712,17.3550748 C69.946405,16.0382093 70.4981047,13.8236606 68.5263611,13.1968643" id="Fill-16" fill="#FFFFFF"></path>
            <path d="M75.7446337,40.9935868 C74.7306526,40.3029881 74.1164698,40.2676734 73.9194678,36.8264513 C73.7263286,33.391115 74.8079083,32.6377346 75.5534258,32.3669885 C76.2989433,32.0903566 77.9947059,32.1138997 79.4857409,30.603215 C80.9787073,29.0964542 78.9507452,27.7858861 76.8551843,26.9559905 C74.7596235,26.1260949 75.3062076,25.4610012 75.6519268,22.2297054 C75.9802636,19.1396685 79.3640632,20.2265767 79.9550693,20.4423888 C79.4857409,18.6001383 78.9333626,16.6813725 78.3075915,15 C76.528779,15.0941726 76.0555879,15.2942892 74.4544635,16.0672889 C72.9421832,16.7932024 71.4511482,20.2579676 71.5882771,21.4959443 C71.7196118,22.7319591 70.8331026,42.5415481 71.0281733,44.3916464 C71.3159508,47.1030312 73.1778131,49.0669214 73.8576632,48.9982539 C74.3038149,48.9492057 74.2806382,49.0845787 74.6360144,48.5744774 C75.7967813,46.8420948 76.7856542,45.1175599 77.6316041,43.338091 C77.9097246,41.8921499 76.5326418,41.5291932 75.7446337,40.9935868" id="Fill-18" fill="#FFFFFF"></path>
            <path d="M75.7446337,40.9935868 C74.7306526,40.3029881 74.1164698,40.2676734 73.9194678,36.8264513 C73.7263286,33.391115 74.8079083,32.6377346 75.5534258,32.3669885 C76.2989433,32.0903566 77.9947059,32.1138997 79.4857409,30.603215 C80.9787073,29.0964542 78.9507452,27.7858861 76.8551843,26.9559905 C74.7596235,26.1260949 75.3062076,25.4610012 75.6519268,22.2297054 C75.9802636,19.1396685 79.3640632,20.2265767 79.9550693,20.4423888 C79.4857409,18.6001383 78.9333626,16.6813725 78.3075915,15 C76.528779,15.0941726 76.0555879,15.2942892 74.4544635,16.0672889 C72.9421832,16.7932024 71.4511482,20.2579676 71.5882771,21.4959443 C71.7196118,22.7319591 70.8331026,42.5415481 71.0281733,44.3916464 C71.3159508,47.1030312 73.1778131,49.0669214 73.8576632,48.9982539 C74.3038149,48.9492057 74.2806382,49.0845787 74.6360144,48.5744774 C75.7967813,46.8420948 76.7856542,45.1175599 77.6316041,43.338091 C77.9097246,41.8921499 76.5326418,41.5291932 75.7446337,40.9935868" id="Fill-20" fill="#FFFFFF"></path>
            <path d="M94.6008796,44.4701308 C93.218609,46.8848807 94.4325128,47.9212365 96.1057878,48.7118162 C97.7790629,49.5044441 98.7102768,48.4967622 99.2569492,47.6795567 C99.8160933,46.8521106 100.057211,46.491639 99.9886173,44.9145759 C99.9179448,43.3354646 96.1515171,41.7584015 94.6008796,44.4701308" id="Fill-22" fill="#FFFFFF"></path>
            <path d="M105.963235,15.6715323 C103.075102,14.5381777 101.741521,14.8882715 100.435078,16.3539186 C99.6752466,17.208385 97.9791956,22.5586892 97.4829795,26.2198401 C97.2329331,28.0731617 97.0003318,38.0083108 97.0003318,38.0083108 C97.0003318,38.0083108 96.9208597,44.2862648 99.2216741,41.0958616 C100.247058,39.6677952 102.799857,34.5647324 103.794228,32.0903403 C104.792475,29.619904 107.601135,23.9867556 107.729066,21.9811333 C107.860874,19.9755109 108.855244,16.802909 105.963235,15.6715323" id="Fill-24" fill="#FFFFFF"></path>
            <path d="M70.8251886,10.2496916 C70.0933282,10.7579195 69.2840996,11.1953287 71.1179328,12.2201162 C72.943402,13.2428207 77,12.9657948 77,12.9657948 C77,12.9657948 77,12.9574632 76.997909,12.9553803 C76.6298877,12.2534426 76.2493203,11.6494012 75.8520246,11.1953287 C75.7223807,11.0411941 75.5843727,10.8745619 75.4484558,10.7245931 C75.3313581,10.6079506 75.2665362,10.5433806 75.2665362,10.5433806 C73.1002292,10.0955569 71.5591401,9.74146366 70.8251886,10.2496916" id="Fill-26" fill="#FFFFFF"></path>
            <path d="M70.8251886,10.2496916 C70.0933282,10.7579195 69.2840996,11.1953287 71.1179328,12.2201162 C72.943402,13.2428207 77,12.9657948 77,12.9657948 C77,12.9657948 77,12.9574632 76.997909,12.9553803 C76.6298877,12.2534426 76.2493203,11.6494012 75.8520246,11.1953287 C75.7223807,11.0411941 75.5843727,10.8745619 75.4484558,10.7245931 C75.3313581,10.6079506 75.2665362,10.5433806 75.2665362,10.5433806 C73.1002292,10.0955569 71.5591401,9.74146366 70.8251886,10.2496916" id="Fill-28" fill="#FFFFFF"></path>
            <path d="M38.0809703,24.9221935 C37.3567639,28.4846585 41.7224813,26.5199276 41.9589188,25.8989984 C42.1543987,25.3966946 41.6629064,23.1613498 40.2554513,21.4208947 C38.8535813,19.6804397 38.3043759,23.8304704 38.0809703,24.9221935" id="Fill-30" fill="#FDC300"></path>
            <path d="M25.6910205,19.6053103 C24.64974,18.8408654 23.2111021,18.7279571 22.6262734,19.6886033 C22.0394069,20.6492496 21.258956,21.687636 23.4800826,24.7990933 C24.0119303,25.5431777 26.9462627,24.0790713 26.9972059,22.7204695 C27.042036,21.5913863 26.5448297,20.2272316 25.6910205,19.6053103" id="Fill-32" fill="#FDC300"></path>
        </g>
    </g>
</svg>